<svg width="218" height="24" viewBox="0 0 218 24" fill="none" xmlns="http://www.w3.org/2000/svg">
<g clip-path="url(#clip0_178_315)">
<path d="M72.1301 0.610963C72.6222 0.610963 72.9763 0.774693 73.1973 1.1217C73.4183 1.46872 73.4183 1.8646 73.1973 2.29226L62.8316 22.8808C62.6785 23.2278 62.3922 23.3915 62.0005 23.3915H56.7825C56.3933 23.3915 56.1045 23.2278 55.9513 22.8808L45.4878 2.32403C45.2668 1.89637 45.2668 1.50049 45.4878 1.13637C45.7087 0.789356 46.0628 0.608519 46.555 0.608519H50.8564C51.2456 0.608519 51.5344 0.789356 51.6876 1.13637L59.158 16.5319C59.2433 16.7959 59.5472 16.813 59.6325 16.5319L67 1.13637C67.1356 0.774693 67.4068 0.591413 67.8311 0.608519H72.1326L72.1301 0.610963Z" fill="#150C09"/>
<path d="M72.1301 0.610963C72.6222 0.610963 72.9763 0.774693 73.1973 1.1217C73.4183 1.46872 73.4183 1.8646 73.1973 2.29226L62.8316 22.8808C62.6785 23.2278 62.3922 23.3915 62.0005 23.3915H56.7825C56.3933 23.3915 56.1045 23.2278 55.9513 22.8808L45.4878 2.32403C45.2668 1.89637 45.2668 1.50049 45.4878 1.13637C45.7087 0.789356 46.0628 0.608519 46.555 0.608519H50.8564C51.2456 0.608519 51.5344 0.789356 51.6876 1.13637L59.158 16.5319C59.2433 16.7959 59.5472 16.813 59.6325 16.5319L67 1.13637C67.1356 0.774693 67.4068 0.591413 67.8311 0.608519H72.1326L72.1301 0.610963Z" fill="#150C09"/>
<path d="M72.1301 0.610963C72.6222 0.610963 72.9763 0.774693 73.1973 1.1217C73.4183 1.46872 73.4183 1.8646 73.1973 2.29226L62.8316 22.8808C62.6785 23.2278 62.3922 23.3915 62.0005 23.3915H56.7825C56.3933 23.3915 56.1045 23.2278 55.9513 22.8808L45.4878 2.32403C45.2668 1.89637 45.2668 1.50049 45.4878 1.13637C45.7087 0.789356 46.0628 0.608519 46.555 0.608519H50.8564C51.2456 0.608519 51.5344 0.789356 51.6876 1.13637L59.158 16.5319C59.2433 16.7959 59.5472 16.813 59.6325 16.5319L67 1.13637C67.1356 0.774693 67.4068 0.591413 67.8311 0.608519H72.1326L72.1301 0.610963Z" fill="#150C09"/>
<path d="M80.9765 23.3914C80.3663 23.3914 79.9445 22.9638 79.9445 22.387V1.61522C79.9445 1.02139 80.3839 0.61084 80.9765 0.61084H84.9063C85.5165 0.61084 85.9384 1.02383 85.9384 1.61522V22.3846C85.9384 22.9784 85.4989 23.389 84.9063 23.389H80.9765V23.3914Z" fill="#150C09"/>
<path d="M80.9765 23.3914C80.3663 23.3914 79.9445 22.9638 79.9445 22.387V1.61522C79.9445 1.02139 80.3839 0.61084 80.9765 0.61084H84.9063C85.5165 0.61084 85.9384 1.02383 85.9384 1.61522V22.3846C85.9384 22.9784 85.4989 23.389 84.9063 23.389H80.9765V23.3914Z" fill="#150C09"/>
<path d="M80.9765 23.3914C80.3663 23.3914 79.9445 22.9638 79.9445 22.387V1.61522C79.9445 1.02139 80.3839 0.61084 80.9765 0.61084H84.9063C85.5165 0.61084 85.9384 1.02383 85.9384 1.61522V22.3846C85.9384 22.9784 85.4989 23.389 84.9063 23.389H80.9765V23.3914Z" fill="#150C09"/>
<path d="M116.593 18.1325C117.204 18.1325 117.625 18.5943 117.625 19.1369V22.3846C117.625 22.9784 117.186 23.389 116.593 23.389H94.5237C93.9135 23.389 93.4917 22.9613 93.4917 22.3846V19.3348C93.4917 19.1198 93.5921 18.8729 93.7955 18.6261L107.109 6.3463C107.38 6.08238 107.33 5.86733 106.941 5.86733H94.0014C93.3912 5.86733 92.9694 5.38836 92.9694 4.86295V1.61522C92.9694 1.02139 93.4088 0.61084 94.0014 0.61084H116.139C116.749 0.61084 117.171 1.02383 117.171 1.61522V4.89472C117.171 5.09267 117.07 5.32238 116.867 5.57164L103.825 17.6535C103.553 17.9174 103.639 18.1325 103.993 18.1325H116.596H116.593Z" fill="#150C09"/>
<path d="M116.593 18.1325C117.204 18.1325 117.625 18.5943 117.625 19.1369V22.3846C117.625 22.9784 117.186 23.389 116.593 23.389H94.5237C93.9135 23.389 93.4917 22.9613 93.4917 22.3846V19.3348C93.4917 19.1198 93.5921 18.8729 93.7955 18.6261L107.109 6.3463C107.38 6.08238 107.33 5.86733 106.941 5.86733H94.0014C93.3912 5.86733 92.9694 5.38836 92.9694 4.86295V1.61522C92.9694 1.02139 93.4088 0.61084 94.0014 0.61084H116.139C116.749 0.61084 117.171 1.02383 117.171 1.61522V4.89472C117.171 5.09267 117.07 5.32238 116.867 5.57164L103.825 17.6535C103.553 17.9174 103.639 18.1325 103.993 18.1325H116.596H116.593Z" fill="#150C09"/>
<path d="M116.593 18.1325C117.204 18.1325 117.625 18.5943 117.625 19.1369V22.3846C117.625 22.9784 117.186 23.389 116.593 23.389H94.5237C93.9135 23.389 93.4917 22.9613 93.4917 22.3846V19.3348C93.4917 19.1198 93.5921 18.8729 93.7955 18.6261L107.109 6.3463C107.38 6.08238 107.33 5.86733 106.941 5.86733H94.0014C93.3912 5.86733 92.9694 5.38836 92.9694 4.86295V1.61522C92.9694 1.02139 93.4088 0.61084 94.0014 0.61084H116.139C116.749 0.61084 117.171 1.02383 117.171 1.61522V4.89472C117.171 5.09267 117.07 5.32238 116.867 5.57164L103.825 17.6535C103.553 17.9174 103.639 18.1325 103.993 18.1325H116.596H116.593Z" fill="#150C09"/>
<path d="M122.386 12.5608V11.4074C122.386 3.93931 127.162 0 136.649 0C146.136 0 150.962 3.93931 150.962 11.4074V12.5608C150.962 20.0778 146.186 24 136.649 24C127.112 24 122.386 20.1926 122.386 12.5608ZM142.661 17.1917C144.167 16.2533 144.931 14.7358 144.931 12.6268V11.3732C144.931 7.39965 142.168 5.40556 136.649 5.38845C134.294 5.38845 132.448 5.78434 130.891 6.65676C129.317 7.53162 128.418 9.1787 128.418 11.3707V12.6244C128.418 14.7504 129.181 16.268 130.705 17.1893C132.212 18.1277 134.193 18.5896 136.652 18.5896C139.11 18.5896 141.157 18.1277 142.666 17.1893L142.661 17.1917Z" fill="#150C09"/>
<path d="M122.386 12.5608V11.4074C122.386 3.93931 127.162 0 136.649 0C146.136 0 150.962 3.93931 150.962 11.4074V12.5608C150.962 20.0778 146.186 24 136.649 24C127.112 24 122.386 20.1926 122.386 12.5608ZM142.661 17.1917C144.167 16.2533 144.931 14.7358 144.931 12.6268V11.3732C144.931 7.39965 142.168 5.40556 136.649 5.38845C134.294 5.38845 132.448 5.78434 130.891 6.65676C129.317 7.53162 128.418 9.1787 128.418 11.3707V12.6244C128.418 14.7504 129.181 16.268 130.705 17.1893C132.212 18.1277 134.193 18.5896 136.652 18.5896C139.11 18.5896 141.157 18.1277 142.666 17.1893L142.661 17.1917Z" fill="#150C09"/>
<path d="M122.386 12.5608V11.4074C122.386 3.93931 127.162 0 136.649 0C146.136 0 150.962 3.93931 150.962 11.4074V12.5608C150.962 20.0778 146.186 24 136.649 24C127.112 24 122.386 20.1926 122.386 12.5608ZM142.661 17.1917C144.167 16.2533 144.931 14.7358 144.931 12.6268V11.3732C144.931 7.39965 142.168 5.40556 136.649 5.38845C134.294 5.38845 132.448 5.78434 130.891 6.65676C129.317 7.53162 128.418 9.1787 128.418 11.3707V12.6244C128.418 14.7504 129.181 16.268 130.705 17.1893C132.212 18.1277 134.193 18.5896 136.652 18.5896C139.11 18.5896 141.157 18.1277 142.666 17.1893L142.661 17.1917Z" fill="#150C09"/>
<path d="M166.242 12.8515C165.574 12.0036 165.926 11.3095 167.023 11.3095H170.933C173.388 11.3095 174.609 10.3369 174.609 8.37461C174.609 6.41229 173.424 5.86977 170.933 5.86977H162.769C162.516 5.86977 162.38 6.00174 162.398 6.24856V22.15C162.398 22.8318 161.823 23.3914 161.122 23.3914H157.571C156.961 23.3914 156.539 22.9638 156.539 22.387V1.61522C156.539 1.02139 156.979 0.61084 157.571 0.61084H171.41C174.508 0.61084 176.814 1.18756 178.355 2.35812C179.88 3.52867 180.643 5.53987 180.643 8.37461C180.643 12.1331 179.069 14.5573 175.9 15.6594C175.596 15.7743 175.543 15.9404 175.746 16.1702L179.844 21.2311C180.234 21.7101 180.319 22.1866 180.098 22.6656C179.862 23.1446 179.438 23.3914 178.81 23.3914H175.676C174.744 23.3914 174.405 23.2277 173.913 22.5825L166.24 12.8515H166.242Z" fill="#150C09"/>
<path d="M166.242 12.8515C165.574 12.0036 165.926 11.3095 167.023 11.3095H170.933C173.388 11.3095 174.609 10.3369 174.609 8.37461C174.609 6.41229 173.424 5.86977 170.933 5.86977H162.769C162.516 5.86977 162.38 6.00174 162.398 6.24856V22.15C162.398 22.8318 161.823 23.3914 161.122 23.3914H157.571C156.961 23.3914 156.539 22.9638 156.539 22.387V1.61522C156.539 1.02139 156.979 0.61084 157.571 0.61084H171.41C174.508 0.61084 176.814 1.18756 178.355 2.35812C179.88 3.52867 180.643 5.53987 180.643 8.37461C180.643 12.1331 179.069 14.5573 175.9 15.6594C175.596 15.7743 175.543 15.9404 175.746 16.1702L179.844 21.2311C180.234 21.7101 180.319 22.1866 180.098 22.6656C179.862 23.1446 179.438 23.3914 178.81 23.3914H175.676C174.744 23.3914 174.405 23.2277 173.913 22.5825L166.24 12.8515H166.242Z" fill="#150C09"/>
<path d="M166.242 12.8515C165.574 12.0036 165.926 11.3095 167.023 11.3095H170.933C173.388 11.3095 174.609 10.3369 174.609 8.37461C174.609 6.41229 173.424 5.86977 170.933 5.86977H162.769C162.516 5.86977 162.38 6.00174 162.398 6.24856V22.15C162.398 22.8318 161.823 23.3914 161.122 23.3914H157.571C156.961 23.3914 156.539 22.9638 156.539 22.387V1.61522C156.539 1.02139 156.979 0.61084 157.571 0.61084H171.41C174.508 0.61084 176.814 1.18756 178.355 2.35812C179.88 3.52867 180.643 5.53987 180.643 8.37461C180.643 12.1331 179.069 14.5573 175.9 15.6594C175.596 15.7743 175.543 15.9404 175.746 16.1702L179.844 21.2311C180.234 21.7101 180.319 22.1866 180.098 22.6656C179.862 23.1446 179.438 23.3914 178.81 23.3914H175.676C174.744 23.3914 174.405 23.2277 173.913 22.5825L166.24 12.8515H166.242Z" fill="#150C09"/>
<path d="M190.582 22.7806C190.429 23.1936 190.125 23.3916 189.7 23.3916H185.482C185.025 23.3916 184.686 23.2278 184.465 22.8808C184.244 22.5509 184.211 22.1892 184.397 21.7762L193.866 1.10463C194.052 0.742955 194.341 0.559674 194.73 0.576781H200.98C201.404 0.576781 201.676 0.757618 201.811 1.10463L211.381 21.7762C211.737 22.5851 211.245 23.3916 210.314 23.3916H206.08C205.656 23.3916 205.369 23.1936 205.216 22.7806L198.102 6.41244C198.017 6.09964 197.713 6.09964 197.578 6.41244L190.582 22.7806Z" fill="#150C09"/>
<path d="M190.582 22.7806C190.429 23.1936 190.125 23.3916 189.7 23.3916H185.482C185.025 23.3916 184.686 23.2278 184.465 22.8808C184.244 22.5509 184.211 22.1892 184.397 21.7762L193.866 1.10463C194.052 0.742955 194.341 0.559674 194.73 0.576781H200.98C201.404 0.576781 201.676 0.757618 201.811 1.10463L211.381 21.7762C211.737 22.5851 211.245 23.3916 210.314 23.3916H206.08C205.656 23.3916 205.369 23.1936 205.216 22.7806L198.102 6.41244C198.017 6.09964 197.713 6.09964 197.578 6.41244L190.582 22.7806Z" fill="#150C09"/>
<path d="M190.582 22.7806C190.429 23.1936 190.125 23.3916 189.7 23.3916H185.482C185.025 23.3916 184.686 23.2278 184.465 22.8808C184.244 22.5509 184.211 22.1892 184.397 21.7762L193.866 1.10463C194.052 0.742955 194.341 0.559674 194.73 0.576781H200.98C201.404 0.576781 201.676 0.757618 201.811 1.10463L211.381 21.7762C211.737 22.5851 211.245 23.3916 210.314 23.3916H206.08C205.656 23.3916 205.369 23.1936 205.216 22.7806L198.102 6.41244C198.017 6.09964 197.713 6.09964 197.578 6.41244L190.582 22.7806Z" fill="#150C09"/>
<path d="M211.157 0.566895C211.253 0.566895 211.321 0.630432 211.321 0.723294V1.23159C211.321 1.31712 211.253 1.38799 211.157 1.38799H209.912C209.872 1.38799 209.852 1.40754 209.854 1.44664V3.96859C209.854 4.06145 209.776 4.12498 209.691 4.12498H209.073C208.978 4.12498 208.91 4.059 208.91 3.96859V1.44664C208.91 1.40754 208.892 1.38799 208.852 1.38799H207.607C207.511 1.38799 207.438 1.31224 207.438 1.23159V0.723294C207.438 0.630432 207.514 0.566895 207.607 0.566895H211.16H211.157Z" fill="#150C09"/>
<path d="M211.157 0.566895C211.253 0.566895 211.321 0.630432 211.321 0.723294V1.23159C211.321 1.31712 211.253 1.38799 211.157 1.38799H209.912C209.872 1.38799 209.852 1.40754 209.854 1.44664V3.96859C209.854 4.06145 209.776 4.12498 209.691 4.12498H209.073C208.978 4.12498 208.91 4.059 208.91 3.96859V1.44664C208.91 1.40754 208.892 1.38799 208.852 1.38799H207.607C207.511 1.38799 207.438 1.31224 207.438 1.23159V0.723294C207.438 0.630432 207.514 0.566895 207.607 0.566895H211.16H211.157Z" fill="#150C09"/>
<path d="M211.157 0.566895C211.253 0.566895 211.321 0.630432 211.321 0.723294V1.23159C211.321 1.31712 211.253 1.38799 211.157 1.38799H209.912C209.872 1.38799 209.852 1.40754 209.854 1.44664V3.96859C209.854 4.06145 209.776 4.12498 209.691 4.12498H209.073C208.978 4.12498 208.91 4.059 208.91 3.96859V1.44664C208.91 1.40754 208.892 1.38799 208.852 1.38799H207.607C207.511 1.38799 207.438 1.31224 207.438 1.23159V0.723294C207.438 0.630432 207.514 0.566895 207.607 0.566895H211.16H211.157Z" fill="#150C09"/>
<path d="M213.204 4.12494C213.108 4.12494 213.043 4.05896 213.043 3.96854V0.723253C213.043 0.630391 213.111 0.566854 213.204 0.566854H213.957C214.007 0.566854 214.048 0.586404 214.075 0.627947L215.471 2.72223C215.494 2.76622 215.524 2.76622 215.554 2.72223L216.96 0.627947C216.993 0.58396 217.033 0.56441 217.086 0.566854H217.837C217.932 0.566854 218 0.630391 218 0.723253V3.96854C218 4.06141 217.932 4.12494 217.837 4.12494H217.242C217.154 4.12494 217.081 4.05896 217.081 3.96854V2.22371C217.081 2.16995 217.038 2.15773 217.011 2.20905L215.916 3.84147C215.883 3.88546 215.84 3.90501 215.79 3.90501H215.238C215.188 3.90501 215.147 3.88546 215.12 3.84147L214.037 2.20905C214.007 2.16017 213.96 2.16995 213.96 2.2286V3.96854C213.96 4.06141 213.892 4.12494 213.799 4.12494H213.206H213.204Z" fill="#150C09"/>
<path d="M213.204 4.12494C213.108 4.12494 213.043 4.05896 213.043 3.96854V0.723253C213.043 0.630391 213.111 0.566854 213.204 0.566854H213.957C214.007 0.566854 214.048 0.586404 214.075 0.627947L215.471 2.72223C215.494 2.76622 215.524 2.76622 215.554 2.72223L216.96 0.627947C216.993 0.58396 217.033 0.56441 217.086 0.566854H217.837C217.932 0.566854 218 0.630391 218 0.723253V3.96854C218 4.06141 217.932 4.12494 217.837 4.12494H217.242C217.154 4.12494 217.081 4.05896 217.081 3.96854V2.22371C217.081 2.16995 217.038 2.15773 217.011 2.20905L215.916 3.84147C215.883 3.88546 215.84 3.90501 215.79 3.90501H215.238C215.188 3.90501 215.147 3.88546 215.12 3.84147L214.037 2.20905C214.007 2.16017 213.96 2.16995 213.96 2.2286V3.96854C213.96 4.06141 213.892 4.12494 213.799 4.12494H213.206H213.204Z" fill="#150C09"/>
<path d="M213.204 4.12494C213.108 4.12494 213.043 4.05896 213.043 3.96854V0.723253C213.043 0.630391 213.111 0.566854 213.204 0.566854H213.957C214.007 0.566854 214.048 0.586404 214.075 0.627947L215.471 2.72223C215.494 2.76622 215.524 2.76622 215.554 2.72223L216.96 0.627947C216.993 0.58396 217.033 0.56441 217.086 0.566854H217.837C217.932 0.566854 218 0.630391 218 0.723253V3.96854C218 4.06141 217.932 4.12494 217.837 4.12494H217.242C217.154 4.12494 217.081 4.05896 217.081 3.96854V2.22371C217.081 2.16995 217.038 2.15773 217.011 2.20905L215.916 3.84147C215.883 3.88546 215.84 3.90501 215.79 3.90501H215.238C215.188 3.90501 215.147 3.88546 215.12 3.84147L214.037 2.20905C214.007 2.16017 213.96 2.16995 213.96 2.2286V3.96854C213.96 4.06141 213.892 4.12494 213.799 4.12494H213.206H213.204Z" fill="#150C09"/>
<path d="M34.6149 0.61084H0.49719C0.223484 0.61084 0 0.828333 0 1.0947V22.9076C0 23.1739 0.223484 23.3914 0.49719 23.3914H34.6149C34.8886 23.3914 35.1121 23.1739 35.1121 22.9076V1.0947C35.1121 0.828333 34.8886 0.61084 34.6149 0.61084ZM32.3399 12.1209L24.1338 12.876C22.8531 12.9933 22.602 13.7582 23.5788 14.5744L28.2368 18.4648C28.621 18.785 28.5608 18.8754 28.1038 18.6652L20.4275 15.1413C19.8148 14.8603 19.1895 15.156 19.0338 15.7963L17.6753 21.4609C17.6075 21.7394 17.4996 21.7394 17.4343 21.4609L16.0758 15.7963C15.9226 15.156 15.2949 14.8603 14.6822 15.1413L7.00836 18.6652C6.55135 18.8754 6.49109 18.785 6.87528 18.4648L11.5333 14.5744C12.5101 13.7582 12.2615 12.9933 10.9783 12.876L2.77221 12.1209C2.05153 12.0549 2.05153 11.9474 2.77221 11.8789L10.9783 11.1238C12.259 11.0065 12.5101 10.2416 11.5333 9.42542L6.87528 5.53498C6.49109 5.21485 6.55135 5.12443 7.00836 5.3346L14.6822 8.85847C15.2949 9.1395 15.9201 8.84381 16.0758 8.20355L17.4343 2.53895C17.5021 2.26037 17.6101 2.26037 17.6753 2.53895L19.0338 8.20355C19.187 8.84381 19.8148 9.1395 20.4275 8.85847L28.1038 5.3346C28.5608 5.12443 28.621 5.21485 28.2368 5.53498L23.5788 9.42542C22.602 10.2416 22.8506 11.0065 24.1338 11.1238L32.3399 11.8789C33.0606 11.9449 33.0606 12.0524 32.3399 12.1209Z" fill="#150C09"/>
</g>
<defs>
<clipPath id="clip0_178_315">
<rect width="218" height="24" fill="white"/>
</clipPath>
</defs>
</svg>
