<svg width="218" height="24" viewBox="0 0 218 24" fill="none" xmlns="http://www.w3.org/2000/svg">
<g clip-path="url(#clip0_1_3)">
<path d="M72.1301 0.610963C72.6223 0.610963 72.9764 0.774693 73.1973 1.1217C73.4183 1.46872 73.4183 1.8646 73.1973 2.29226L62.8317 22.8808C62.6785 23.2278 62.3923 23.3915 62.0005 23.3915H56.7826C56.3933 23.3915 56.1046 23.2278 55.9514 22.8808L45.4878 2.32403C45.2668 1.89637 45.2668 1.50049 45.4878 1.13637C45.7088 0.789356 46.0628 0.608519 46.555 0.608519H50.8565C51.2457 0.608519 51.5344 0.789356 51.6876 1.13637L59.158 16.5319C59.2434 16.7959 59.5472 16.813 59.6326 16.5319L67 1.13637C67.1356 0.774693 67.4068 0.591413 67.8312 0.608519H72.1327L72.1301 0.610963Z" fill="#FFEEC5"/>
<path d="M72.1301 0.610963C72.6223 0.610963 72.9764 0.774693 73.1973 1.1217C73.4183 1.46872 73.4183 1.8646 73.1973 2.29226L62.8317 22.8808C62.6785 23.2278 62.3923 23.3915 62.0005 23.3915H56.7826C56.3933 23.3915 56.1046 23.2278 55.9514 22.8808L45.4878 2.32403C45.2668 1.89637 45.2668 1.50049 45.4878 1.13637C45.7088 0.789356 46.0628 0.608519 46.555 0.608519H50.8565C51.2457 0.608519 51.5344 0.789356 51.6876 1.13637L59.158 16.5319C59.2434 16.7959 59.5472 16.813 59.6326 16.5319L67 1.13637C67.1356 0.774693 67.4068 0.591413 67.8312 0.608519H72.1327L72.1301 0.610963Z" fill="#FFEEC5"/>
<path d="M72.1301 0.610963C72.6223 0.610963 72.9764 0.774693 73.1973 1.1217C73.4183 1.46872 73.4183 1.8646 73.1973 2.29226L62.8317 22.8808C62.6785 23.2278 62.3923 23.3915 62.0005 23.3915H56.7826C56.3933 23.3915 56.1046 23.2278 55.9514 22.8808L45.4878 2.32403C45.2668 1.89637 45.2668 1.50049 45.4878 1.13637C45.7088 0.789356 46.0628 0.608519 46.555 0.608519H50.8565C51.2457 0.608519 51.5344 0.789356 51.6876 1.13637L59.158 16.5319C59.2434 16.7959 59.5472 16.813 59.6326 16.5319L67 1.13637C67.1356 0.774693 67.4068 0.591413 67.8312 0.608519H72.1327L72.1301 0.610963Z" fill="#FFEEC5"/>
<path d="M80.9766 23.3915C80.3664 23.3915 79.9445 22.9639 79.9445 22.3872V1.61534C79.9445 1.02151 80.384 0.610962 80.9766 0.610962H84.9064C85.5166 0.610962 85.9384 1.02395 85.9384 1.61534V22.3847C85.9384 22.9785 85.499 23.3891 84.9064 23.3891H80.9766V23.3915Z" fill="#FFEEC5"/>
<path d="M80.9766 23.3915C80.3664 23.3915 79.9445 22.9639 79.9445 22.3872V1.61534C79.9445 1.02151 80.384 0.610962 80.9766 0.610962H84.9064C85.5166 0.610962 85.9384 1.02395 85.9384 1.61534V22.3847C85.9384 22.9785 85.499 23.3891 84.9064 23.3891H80.9766V23.3915Z" fill="#FFEEC5"/>
<path d="M80.9766 23.3915C80.3664 23.3915 79.9445 22.9639 79.9445 22.3872V1.61534C79.9445 1.02151 80.384 0.610962 80.9766 0.610962H84.9064C85.5166 0.610962 85.9384 1.02395 85.9384 1.61534V22.3847C85.9384 22.9785 85.499 23.3891 84.9064 23.3891H80.9766V23.3915Z" fill="#FFEEC5"/>
<path d="M116.593 18.1326C117.204 18.1326 117.625 18.5945 117.625 19.137V22.3847C117.625 22.9785 117.186 23.3891 116.593 23.3891H94.5238C93.9136 23.3891 93.4917 22.9614 93.4917 22.3847V19.3349C93.4917 19.1199 93.5922 18.8731 93.7956 18.6262L107.109 6.34643C107.38 6.0825 107.33 5.86745 106.941 5.86745H94.0015C93.3913 5.86745 92.9694 5.38848 92.9694 4.86307V1.61534C92.9694 1.02151 93.4089 0.610962 94.0015 0.610962H116.139C116.749 0.610962 117.171 1.02395 117.171 1.61534V4.89484C117.171 5.09279 117.071 5.3225 116.867 5.57176L103.825 17.6536C103.554 17.9176 103.639 18.1326 103.993 18.1326H116.596H116.593Z" fill="#FFEEC5"/>
<path d="M116.593 18.1326C117.204 18.1326 117.625 18.5945 117.625 19.137V22.3847C117.625 22.9785 117.186 23.3891 116.593 23.3891H94.5238C93.9136 23.3891 93.4917 22.9614 93.4917 22.3847V19.3349C93.4917 19.1199 93.5922 18.8731 93.7956 18.6262L107.109 6.34643C107.38 6.0825 107.33 5.86745 106.941 5.86745H94.0015C93.3913 5.86745 92.9694 5.38848 92.9694 4.86307V1.61534C92.9694 1.02151 93.4089 0.610962 94.0015 0.610962H116.139C116.749 0.610962 117.171 1.02395 117.171 1.61534V4.89484C117.171 5.09279 117.071 5.3225 116.867 5.57176L103.825 17.6536C103.554 17.9176 103.639 18.1326 103.993 18.1326H116.596H116.593Z" fill="#FFEEC5"/>
<path d="M116.593 18.1326C117.204 18.1326 117.625 18.5945 117.625 19.137V22.3847C117.625 22.9785 117.186 23.3891 116.593 23.3891H94.5238C93.9136 23.3891 93.4917 22.9614 93.4917 22.3847V19.3349C93.4917 19.1199 93.5922 18.8731 93.7956 18.6262L107.109 6.34643C107.38 6.0825 107.33 5.86745 106.941 5.86745H94.0015C93.3913 5.86745 92.9694 5.38848 92.9694 4.86307V1.61534C92.9694 1.02151 93.4089 0.610962 94.0015 0.610962H116.139C116.749 0.610962 117.171 1.02395 117.171 1.61534V4.89484C117.171 5.09279 117.071 5.3225 116.867 5.57176L103.825 17.6536C103.554 17.9176 103.639 18.1326 103.993 18.1326H116.596H116.593Z" fill="#FFEEC5"/>
<path d="M122.386 12.5608V11.4074C122.386 3.93931 127.163 0 136.649 0C146.136 0 150.962 3.93931 150.962 11.4074V12.5608C150.962 20.0778 146.186 24 136.649 24C127.112 24 122.386 20.1926 122.386 12.5608ZM142.661 17.1917C144.167 16.2533 144.931 14.7358 144.931 12.6268V11.3732C144.931 7.39965 142.169 5.40556 136.649 5.38845C134.294 5.38845 132.448 5.78434 130.891 6.65676C129.317 7.53162 128.418 9.1787 128.418 11.3707V12.6244C128.418 14.7504 129.181 16.268 130.706 17.1893C132.212 18.1277 134.193 18.5896 136.652 18.5896C139.11 18.5896 141.157 18.1277 142.666 17.1893L142.661 17.1917Z" fill="#FFEEC5"/>
<path d="M122.386 12.5608V11.4074C122.386 3.93931 127.163 0 136.649 0C146.136 0 150.962 3.93931 150.962 11.4074V12.5608C150.962 20.0778 146.186 24 136.649 24C127.112 24 122.386 20.1926 122.386 12.5608ZM142.661 17.1917C144.167 16.2533 144.931 14.7358 144.931 12.6268V11.3732C144.931 7.39965 142.169 5.40556 136.649 5.38845C134.294 5.38845 132.448 5.78434 130.891 6.65676C129.317 7.53162 128.418 9.1787 128.418 11.3707V12.6244C128.418 14.7504 129.181 16.268 130.706 17.1893C132.212 18.1277 134.193 18.5896 136.652 18.5896C139.11 18.5896 141.157 18.1277 142.666 17.1893L142.661 17.1917Z" fill="#FFEEC5"/>
<path d="M122.386 12.5608V11.4074C122.386 3.93931 127.163 0 136.649 0C146.136 0 150.962 3.93931 150.962 11.4074V12.5608C150.962 20.0778 146.186 24 136.649 24C127.112 24 122.386 20.1926 122.386 12.5608ZM142.661 17.1917C144.167 16.2533 144.931 14.7358 144.931 12.6268V11.3732C144.931 7.39965 142.169 5.40556 136.649 5.38845C134.294 5.38845 132.448 5.78434 130.891 6.65676C129.317 7.53162 128.418 9.1787 128.418 11.3707V12.6244C128.418 14.7504 129.181 16.268 130.706 17.1893C132.212 18.1277 134.193 18.5896 136.652 18.5896C139.11 18.5896 141.157 18.1277 142.666 17.1893L142.661 17.1917Z" fill="#FFEEC5"/>
<path d="M166.242 12.8517C165.574 12.0037 165.926 11.3097 167.023 11.3097H170.933C173.389 11.3097 174.609 10.3371 174.609 8.37473C174.609 6.41241 173.424 5.8699 170.933 5.8699H162.769C162.516 5.8699 162.38 6.00186 162.398 6.24868V22.1501C162.398 22.8319 161.823 23.3915 161.122 23.3915H157.571C156.961 23.3915 156.539 22.9639 156.539 22.3872V1.61534C156.539 1.02151 156.979 0.610962 157.571 0.610962H171.41C174.508 0.610962 176.814 1.18769 178.355 2.35824C179.88 3.52879 180.643 5.53999 180.643 8.37473C180.643 12.1332 179.069 14.5574 175.9 15.6595C175.596 15.7744 175.543 15.9406 175.746 16.1703L179.844 21.2313C180.234 21.7102 180.319 22.1868 180.098 22.6657C179.862 23.1447 179.438 23.3915 178.81 23.3915H175.676C174.745 23.3915 174.406 23.2278 173.913 22.5827L166.24 12.8517H166.242Z" fill="#FFEEC5"/>
<path d="M166.242 12.8517C165.574 12.0037 165.926 11.3097 167.023 11.3097H170.933C173.389 11.3097 174.609 10.3371 174.609 8.37473C174.609 6.41241 173.424 5.8699 170.933 5.8699H162.769C162.516 5.8699 162.38 6.00186 162.398 6.24868V22.1501C162.398 22.8319 161.823 23.3915 161.122 23.3915H157.571C156.961 23.3915 156.539 22.9639 156.539 22.3872V1.61534C156.539 1.02151 156.979 0.610962 157.571 0.610962H171.41C174.508 0.610962 176.814 1.18769 178.355 2.35824C179.88 3.52879 180.643 5.53999 180.643 8.37473C180.643 12.1332 179.069 14.5574 175.9 15.6595C175.596 15.7744 175.543 15.9406 175.746 16.1703L179.844 21.2313C180.234 21.7102 180.319 22.1868 180.098 22.6657C179.862 23.1447 179.438 23.3915 178.81 23.3915H175.676C174.745 23.3915 174.406 23.2278 173.913 22.5827L166.24 12.8517H166.242Z" fill="#FFEEC5"/>
<path d="M166.242 12.8517C165.574 12.0037 165.926 11.3097 167.023 11.3097H170.933C173.389 11.3097 174.609 10.3371 174.609 8.37473C174.609 6.41241 173.424 5.8699 170.933 5.8699H162.769C162.516 5.8699 162.38 6.00186 162.398 6.24868V22.1501C162.398 22.8319 161.823 23.3915 161.122 23.3915H157.571C156.961 23.3915 156.539 22.9639 156.539 22.3872V1.61534C156.539 1.02151 156.979 0.610962 157.571 0.610962H171.41C174.508 0.610962 176.814 1.18769 178.355 2.35824C179.88 3.52879 180.643 5.53999 180.643 8.37473C180.643 12.1332 179.069 14.5574 175.9 15.6595C175.596 15.7744 175.543 15.9406 175.746 16.1703L179.844 21.2313C180.234 21.7102 180.319 22.1868 180.098 22.6657C179.862 23.1447 179.438 23.3915 178.81 23.3915H175.676C174.745 23.3915 174.406 23.2278 173.913 22.5827L166.24 12.8517H166.242Z" fill="#FFEEC5"/>
<path d="M190.582 22.7806C190.429 23.1936 190.125 23.3915 189.7 23.3915H185.482C185.025 23.3915 184.686 23.2278 184.465 22.8808C184.244 22.5509 184.211 22.1892 184.397 21.7762L193.866 1.10457C194.052 0.742894 194.341 0.559613 194.73 0.576719H200.98C201.404 0.576719 201.676 0.757556 201.811 1.10457L211.381 21.7762C211.737 22.5851 211.245 23.3915 210.314 23.3915H206.08C205.656 23.3915 205.369 23.1936 205.216 22.7806L198.102 6.41238C198.017 6.09958 197.713 6.09958 197.578 6.41238L190.582 22.7806Z" fill="#FFEEC5"/>
<path d="M190.582 22.7806C190.429 23.1936 190.125 23.3915 189.7 23.3915H185.482C185.025 23.3915 184.686 23.2278 184.465 22.8808C184.244 22.5509 184.211 22.1892 184.397 21.7762L193.866 1.10457C194.052 0.742894 194.341 0.559613 194.73 0.576719H200.98C201.404 0.576719 201.676 0.757556 201.811 1.10457L211.381 21.7762C211.737 22.5851 211.245 23.3915 210.314 23.3915H206.08C205.656 23.3915 205.369 23.1936 205.216 22.7806L198.102 6.41238C198.017 6.09958 197.713 6.09958 197.578 6.41238L190.582 22.7806Z" fill="#FFEEC5"/>
<path d="M190.582 22.7806C190.429 23.1936 190.125 23.3915 189.7 23.3915H185.482C185.025 23.3915 184.686 23.2278 184.465 22.8808C184.244 22.5509 184.211 22.1892 184.397 21.7762L193.866 1.10457C194.052 0.742894 194.341 0.559613 194.73 0.576719H200.98C201.404 0.576719 201.676 0.757556 201.811 1.10457L211.381 21.7762C211.737 22.5851 211.245 23.3915 210.314 23.3915H206.08C205.656 23.3915 205.369 23.1936 205.216 22.7806L198.102 6.41238C198.017 6.09958 197.713 6.09958 197.578 6.41238L190.582 22.7806Z" fill="#FFEEC5"/>
<path d="M211.157 0.566956C211.253 0.566956 211.321 0.630493 211.321 0.723355V1.23165C211.321 1.31718 211.253 1.38805 211.157 1.38805H209.912C209.872 1.38805 209.852 1.4076 209.854 1.4467V3.96865C209.854 4.06151 209.776 4.12505 209.691 4.12505H209.073C208.978 4.12505 208.91 4.05906 208.91 3.96865V1.4467C208.91 1.4076 208.892 1.38805 208.852 1.38805H207.607C207.511 1.38805 207.439 1.3123 207.439 1.23165V0.723355C207.439 0.630493 207.514 0.566956 207.607 0.566956H211.16H211.157Z" fill="#FFEEC5"/>
<path d="M211.157 0.566956C211.253 0.566956 211.321 0.630493 211.321 0.723355V1.23165C211.321 1.31718 211.253 1.38805 211.157 1.38805H209.912C209.872 1.38805 209.852 1.4076 209.854 1.4467V3.96865C209.854 4.06151 209.776 4.12505 209.691 4.12505H209.073C208.978 4.12505 208.91 4.05906 208.91 3.96865V1.4467C208.91 1.4076 208.892 1.38805 208.852 1.38805H207.607C207.511 1.38805 207.439 1.3123 207.439 1.23165V0.723355C207.439 0.630493 207.514 0.566956 207.607 0.566956H211.16H211.157Z" fill="#FFEEC5"/>
<path d="M211.157 0.566956C211.253 0.566956 211.321 0.630493 211.321 0.723355V1.23165C211.321 1.31718 211.253 1.38805 211.157 1.38805H209.912C209.872 1.38805 209.852 1.4076 209.854 1.4467V3.96865C209.854 4.06151 209.776 4.12505 209.691 4.12505H209.073C208.978 4.12505 208.91 4.05906 208.91 3.96865V1.4467C208.91 1.4076 208.892 1.38805 208.852 1.38805H207.607C207.511 1.38805 207.439 1.3123 207.439 1.23165V0.723355C207.439 0.630493 207.514 0.566956 207.607 0.566956H211.16H211.157Z" fill="#FFEEC5"/>
<path d="M213.204 4.12507C213.108 4.12507 213.043 4.05908 213.043 3.96867V0.723375C213.043 0.630513 213.111 0.566976 213.204 0.566976H213.957C214.007 0.566976 214.048 0.586526 214.075 0.628069L215.471 2.72236C215.494 2.76634 215.524 2.76634 215.554 2.72236L216.96 0.628069C216.993 0.584082 217.033 0.564532 217.086 0.566976H217.837C217.932 0.566976 218 0.630513 218 0.723375V3.96867C218 4.06153 217.932 4.12507 217.837 4.12507H217.242C217.154 4.12507 217.081 4.05908 217.081 3.96867V2.22383C217.081 2.17007 217.038 2.15785 217.011 2.20917L215.916 3.84159C215.883 3.88558 215.841 3.90513 215.79 3.90513H215.238C215.188 3.90513 215.147 3.88558 215.12 3.84159L214.038 2.20917C214.007 2.1603 213.96 2.17007 213.96 2.22872V3.96867C213.96 4.06153 213.892 4.12507 213.799 4.12507H213.206H213.204Z" fill="#FFEEC5"/>
<path d="M213.204 4.12507C213.108 4.12507 213.043 4.05908 213.043 3.96867V0.723375C213.043 0.630513 213.111 0.566976 213.204 0.566976H213.957C214.007 0.566976 214.048 0.586526 214.075 0.628069L215.471 2.72236C215.494 2.76634 215.524 2.76634 215.554 2.72236L216.96 0.628069C216.993 0.584082 217.033 0.564532 217.086 0.566976H217.837C217.932 0.566976 218 0.630513 218 0.723375V3.96867C218 4.06153 217.932 4.12507 217.837 4.12507H217.242C217.154 4.12507 217.081 4.05908 217.081 3.96867V2.22383C217.081 2.17007 217.038 2.15785 217.011 2.20917L215.916 3.84159C215.883 3.88558 215.841 3.90513 215.79 3.90513H215.238C215.188 3.90513 215.147 3.88558 215.12 3.84159L214.038 2.20917C214.007 2.1603 213.96 2.17007 213.96 2.22872V3.96867C213.96 4.06153 213.892 4.12507 213.799 4.12507H213.206H213.204Z" fill="#FFEEC5"/>
<path d="M213.204 4.12507C213.108 4.12507 213.043 4.05908 213.043 3.96867V0.723375C213.043 0.630513 213.111 0.566976 213.204 0.566976H213.957C214.007 0.566976 214.048 0.586526 214.075 0.628069L215.471 2.72236C215.494 2.76634 215.524 2.76634 215.554 2.72236L216.96 0.628069C216.993 0.584082 217.033 0.564532 217.086 0.566976H217.837C217.932 0.566976 218 0.630513 218 0.723375V3.96867C218 4.06153 217.932 4.12507 217.837 4.12507H217.242C217.154 4.12507 217.081 4.05908 217.081 3.96867V2.22383C217.081 2.17007 217.038 2.15785 217.011 2.20917L215.916 3.84159C215.883 3.88558 215.841 3.90513 215.79 3.90513H215.238C215.188 3.90513 215.147 3.88558 215.12 3.84159L214.038 2.20917C214.007 2.1603 213.96 2.17007 213.96 2.22872V3.96867C213.96 4.06153 213.892 4.12507 213.799 4.12507H213.206H213.204Z" fill="#FFEEC5"/>
<path d="M34.6149 0.610962H0.49719C0.223484 0.610962 0 0.828455 0 1.09482V22.9077C0 23.174 0.223484 23.3915 0.49719 23.3915H34.6149C34.8886 23.3915 35.1121 23.174 35.1121 22.9077V1.09482C35.1121 0.828455 34.8886 0.610962 34.6149 0.610962ZM32.3399 12.121L24.1338 12.8761C22.8531 12.9934 22.602 13.7583 23.5788 14.5745L28.2368 18.4649C28.621 18.7851 28.5608 18.8755 28.1038 18.6653L20.4275 15.1415C19.8148 14.8604 19.1895 15.1561 19.0338 15.7964L17.6753 21.461C17.6075 21.7396 17.4996 21.7396 17.4343 21.461L16.0758 15.7964C15.9226 15.1561 15.2949 14.8604 14.6822 15.1415L7.00836 18.6653C6.55135 18.8755 6.49109 18.7851 6.87528 18.4649L11.5333 14.5745C12.5101 13.7583 12.2615 12.9934 10.9783 12.8761L2.77221 12.121C2.05153 12.055 2.05153 11.9475 2.77221 11.8791L10.9783 11.1239C12.259 11.0066 12.5101 10.2418 11.5333 9.42554L6.87528 5.5351C6.49109 5.21497 6.55135 5.12456 7.00836 5.33472L14.6822 8.85859C15.2949 9.13963 15.9201 8.84393 16.0758 8.20367L17.4343 2.53908C17.5021 2.26049 17.6101 2.26049 17.6753 2.53908L19.0338 8.20367C19.187 8.84393 19.8148 9.13963 20.4275 8.85859L28.1038 5.33472C28.5608 5.12456 28.621 5.21497 28.2368 5.5351L23.5788 9.42554C22.602 10.2418 22.8506 11.0066 24.1338 11.1239L32.3399 11.8791C33.0606 11.945 33.0606 12.0526 32.3399 12.121Z" fill="#FFEEC5"/>
</g>
<defs>
<clipPath id="clip0_1_3">
<rect width="218" height="24" fill="white"/>
</clipPath>
</defs>
</svg>
